<?xml version="1.0" standalone="no"?>
<!DOCTYPE svg PUBLIC "-//W3C//DTD SVG 20010904//EN"
 "http://www.w3.org/TR/2001/REC-SVG-20010904/DTD/svg10.dtd">
<svg version="1.0" xmlns="http://www.w3.org/2000/svg"
 width="1280.000000pt" height="712.000000pt" viewBox="0 0 1280.000000 712.000000"
 preserveAspectRatio="xMidYMid meet">
<g transform="translate(0.000000,712.000000) scale(0.100000,-0.100000)"
fill="#000000" stroke="none">
<path d="M8250 7111 c-8 -5 -36 -12 -63 -15 -138 -20 -316 -109 -426 -212
-140 -132 -189 -260 -207 -547 l-6 -98 -59 -30 c-44 -22 -64 -39 -76 -65 -16
-33 -16 -39 0 -101 9 -36 36 -107 59 -157 22 -50 41 -98 40 -106 0 -8 -26 -60
-56 -115 -120 -215 -171 -398 -193 -688 -3 -48 -11 -94 -17 -102 -16 -21 -636
-136 -693 -128 -81 11 -119 -40 -157 -209 -3 -14 -26 -50 -51 -79 -88 -103
-160 -270 -280 -654 -88 -279 -87 -277 -120 -295 -62 -34 -88 -96 -132 -317
l-27 -132 -73 -88 c-40 -48 -90 -122 -111 -163 -36 -73 -37 -76 -37 -191 l0
-117 -35 -48 c-44 -62 -117 -140 -202 -216 -63 -56 -71 -60 -150 -75 -158 -29
-218 -66 -271 -163 -10 -19 -21 -29 -27 -24 -4 5 -101 296 -213 647 -113 352
-208 641 -210 643 -5 6 -67 11 -987 89 -1820 153 -2209 185 -2234 185 -14 0
-26 -6 -26 -13 0 -7 137 -401 305 -877 168 -475 302 -867 297 -872 -4 -4 -411
-9 -903 -10 l-895 -3 201 -850 201 -850 1359 -7 c748 -3 2501 -11 3895 -17
3655 -17 5956 -30 6415 -38 l401 -6 27 159 c15 87 83 476 151 864 68 388 121
708 119 713 -2 4 -258 7 -567 7 l-563 0 -807 717 -808 716 7 102 c6 91 5 106
-15 153 -12 28 -28 57 -36 63 -9 8 -14 33 -14 76 0 77 -16 109 -77 154 l-43
33 2 90 c1 75 -2 98 -19 131 -20 38 -20 44 -7 95 9 31 14 82 12 117 -4 55 -8
67 -37 97 -19 19 -100 70 -182 113 -86 45 -149 84 -149 92 0 8 18 44 40 80 43
72 70 140 70 177 0 13 -12 53 -26 89 -23 56 -25 75 -20 128 19 183 19 190 -4
220 -12 15 -59 45 -105 68 -46 22 -86 47 -89 55 -3 9 -6 41 -6 72 0 84 -26
307 -44 385 -25 109 -51 147 -153 228 -20 15 -15 88 13 206 45 187 22 275
-123 468 -154 205 -346 359 -510 409 -49 15 -102 31 -119 37 -38 11 -134 11
-154 0z m858 -1834 c12 -11 22 -28 22 -37 0 -20 -82 -69 -188 -112 -75 -30
-82 -35 -80 -58 2 -18 14 -30 41 -43 41 -21 40 -30 -6 -53 -18 -9 -44 -28 -59
-42 -27 -25 -28 -25 -48 -7 -30 27 -24 64 20 123 22 29 40 55 40 58 0 10 123
199 138 211 17 14 84 -8 120 -40z m112 -499 c-1 -89 -61 -186 -97 -156 -21 17
-16 91 9 124 33 44 71 84 80 84 4 0 8 -24 8 -52z m-2517 -1575 c13 -47 17
-208 7 -281 -6 -44 -29 -133 -51 -198 -22 -66 -47 -148 -55 -183 -25 -105 -44
-342 -44 -553 0 -108 -3 -203 -6 -212 -5 -14 -44 -16 -335 -16 -356 0 -341 -2
-320 53 6 15 30 34 66 52 69 33 104 83 131 186 17 64 23 74 65 104 25 19 78
68 117 109 122 129 178 280 237 636 15 91 30 170 34 177 16 30 124 143 136
143 7 0 16 -8 18 -17z m2571 -410 c26 -82 76 -233 113 -338 120 -345 194 -496
304 -618 33 -36 59 -70 59 -76 0 -15 -646 -15 -655 -1 -3 6 -9 131 -12 279 -7
316 1 399 58 577 21 67 43 161 49 210 7 49 14 95 16 102 10 33 26 0 68 -135z
m1524 -490 c328 -290 600 -531 604 -537 4 -5 4 -14 2 -18 -8 -13 -962 -10
-969 3 -4 6 8 40 26 77 61 124 50 292 -33 502 -38 96 -125 269 -194 387 -55
93 -62 113 -43 113 5 0 279 -237 607 -527z"/>
</g>
</svg>
